# xmcd
#
# Track frame offsets:
#	225
#	13395
#	26045
#	40063
#	60413
#	77431
#	93402
#	108459
#	122735
#	134848
#	146707
#	156945
#	175561
#	189053
#	203938
#	217412
#	230120
#
# Disc length: 3300 seconds
#
# Revision: 1
# Processed by: cddbd v1.4PL0 Copyright (c) Steve Scherf et al.
# Submitted via: audiograbber 1.81.03
#
DISCID=f60ce111
DTITLE=Reiner Family Band - LIVE!
DYEAR=2003
DGENRE=Bluegrass
TTITLE0=Over the Waterfall - Soldier's Joy
TTITLE1=Road to Lisdoonvarna - Irish Washerwoman - Swalowtail Jig - Ten Penny B
TTITLE1=it
TTITLE2=Way Downtown
TTITLE3=Star of the County Down - Jennie's Chickens - The Gravel Walk
TTITLE4=Jambalaya - Prairie Grass Two Step
TTITLE5=Boatsman - June Apple - Old Joe Clark
TTITLE6=The Holy Land - Call to Dance
TTITLE7=Five Foot Two, Eyes of Blue
TTITLE8=Ebba Polka - Redwing
TTITLE9=Turkey in the Straw - Golden Slippers
TTITLE10=Gone, Gone. Gone
TTITLE11=Cherokee Shuffle - Big Sandy River - Devil's Dream
TTITLE12=I'm an Old Cowhand
TTITLE13=Red-Haired Boy - Julia Delaney's - Tam Lin - Music for a Found Harmoni
TTITLE13=um
TTITLE14=Footprints in the Snow
TTITLE15=Ouzel Falls - Wizard's Walk
TTITLE16=Slider's Reel - Ragtime Annie - Whiskey Before Breakfast
EXTD=Recorded live at the annual Codman Community Farms Harvest Festival in Lin
EXTD=coln, MA in 2002.\n\nDave Reiner	fiddle (mandolin on 14]\nAndy Eid-Reiner	
EXTD=fiddle\nEric Eid-Reiner	piano (fiddle on 5, 13, 15]\nCindy Eid		banjo and 
EXTD=bodhran - harmony vocals on 3, 11, 15\nMike Holmes	mandolin - lead vocals on
EXTD=3, 6, 11, 13 - harmony vocals on 5, 15\nJohn Robinson (JR)	guitar - lead vo
EXTD=cals on 5, 15 - harmony vocals on 3, 11, 13\n\nThe Reiner Family Band may b
EXTD=e contacted at www.fiddlestyles.com.\n
EXTT0=
EXTT1=
EXTT2=
EXTT3=
EXTT4=
EXTT5=
EXTT6=
EXTT7=
EXTT8=
EXTT9=
EXTT10=
EXTT11=
EXTT12=
EXTT13=
EXTT14=
EXTT15=
EXTT16=
PLAYORDER=
